<?xml version="1.0" encoding="UTF-8"?>
<svg id="katman_1" data-name="katman 1" xmlns="http://www.w3.org/2000/svg" viewBox="0 0 1080 1080">
  <defs>
    <style>
      .cls-1 {
        fill: #fff;
      }
    </style>
  </defs>
  <g>
    <g>
      <g>
        <path class="cls-1" d="M469.65,475.5l-7.13-15.92h-38.7l-7.04,15.92h-5.37l29.07-64.81h5.46l29.07,64.81h-5.37ZM460.57,454.95l-17.4-39.44-17.4,39.44h34.81Z"/>
        <path class="cls-1" d="M491.5,472.73c0,4.81-7.31,4.81-7.31,0s7.31-4.81,7.31,0Z"/>
        <path class="cls-1" d="M557.6,422.64c-5.65-5.55-13.52-8.33-20.83-8.33-18.98,0-28.7,13.89-28.61,28.88,0,15.28,9.72,28.42,28.61,28.42,6.94,0,14.16-2.41,19.72-7.5v-18.15h-22.59v-4.35h27.31v24.26c-6.76,6.76-14.81,10.46-24.44,10.46-22.03,0-33.42-15.37-33.42-33.05-.09-20.28,13.7-33.51,33.42-33.51,8.52,0,17.13,3.24,23.7,9.72l-2.87,3.15Z"/>
        <path class="cls-1" d="M594.81,476.24c-12.87,0-23.24-8.89-23.24-23.42s10.37-23.79,23.24-23.79,23.24,9.26,23.24,23.79-10.37,23.42-23.24,23.42ZM594.81,471.8c10.37,0,18.79-7.13,18.79-18.98s-8.42-19.53-18.79-19.53-18.79,7.68-18.79,19.53,8.43,18.98,18.79,18.98ZM581.76,415.98c0,4.81,7.31,4.81,7.31,0s-7.31-4.81-7.31,0ZM601.57,415.98c0,4.81,7.31,4.81,7.31,0s-7.31-4.81-7.31,0Z"/>
        <path class="cls-1" d="M634.44,410.7v39.07l21.57-20h6.02v.19l-23.14,21.39,25.83,23.89v.28h-5.74l-24.53-22.4v22.4h-4.44v-64.81h4.44Z"/>
        <path class="cls-1" d="M677.3,410.7v27.59c3.7-6.57,10.09-9.07,16.48-9.17,12.78,0,19.16,8.24,19.16,20.18v26.2h-4.44v-26.2c0-9.44-4.44-15.83-14.72-15.83-9.63,0-16.29,7.41-16.29,16.94v25.09h-4.54v-64.81h4.35Z"/>
        <path class="cls-1" d="M770.81,429.77v45.73h-4.54v-9.72c-4.44,7.13-11.29,10.46-18.7,10.46-12.78,0-23.24-9.63-23.24-23.61s10.46-23.42,23.24-23.42c7.41,0,14.91,3.43,18.7,10.55v-10h4.54ZM728.87,452.64c0,11.48,8.33,19.16,18.7,19.16,25.46,0,25.46-38.23,0-38.23-10.37,0-18.7,7.59-18.7,19.07Z"/>
        <path class="cls-1" d="M790.25,429.77v8.15c3.52-6.3,9.91-8.89,16.29-8.98,12.22,0,20.64,7.5,20.64,20.18v26.39h-4.54v-26.29c0-10.37-6.39-15.92-16.29-15.83-9.44.09-16.02,7.22-16.02,16.66v25.46h-4.54v-45.73h4.44Z"/>
      </g>
      <g>
        <path class="cls-1" d="M499.59,541.22c-9.22-9.03-22.86-13.83-34.85-13.83-30.24,0-47.76,22.68-47.57,49.97,0,23.6,14.01,46.47,47.57,46.47,11.06,0,21.21-2.77,31.53-11.43v-26.18h-35.96v-18.44h55.13v52.92c-12.91,14.2-28.95,22.5-50.71,22.5-47.39,0-67.86-31.53-67.86-65.83,0-37.25,23.79-68.96,67.86-68.96,17.15,0,34.48,6.46,47.76,19.55l-12.91,13.28Z"/>
        <path class="cls-1" d="M579.62,547.86c28.03,0,47.21,20.65,47.21,47.39s-18.62,47.21-47.21,47.21-46.84-20.28-46.84-47.21,18.62-47.39,46.84-47.39ZM550.11,521.31c0,15.12,22.86,15.12,22.86,0s-22.86-15.12-22.86,0ZM579.62,565.38c-17.33,0-27.84,13.83-27.84,29.87s10.51,29.5,27.84,29.5,28.03-13.28,28.03-29.5-11.43-29.87-28.03-29.87ZM589.21,521.31c0,15.12,23.05,15.12,23.05,0s-23.05-15.12-23.05,0Z"/>
        <path class="cls-1" d="M666.1,511.72v75.23l33.74-37.25h23.05v1.11l-39.28,41.67,44.62,46.84v1.29h-23.24l-38.91-42.04v42.04h-19.18v-128.89h19.18Z"/>
        <path class="cls-1" d="M759.22,549.71v48.68c0,15.49,8.85,26.18,24.71,26.18,14.94,0,25.26-12.35,25.26-27.47v-47.39h18.99v91.09h-17.15l-1.11-13.46c-8.85,10.14-18.62,14.75-31.35,14.75-22.31,0-38.35-16.04-38.35-43.52v-48.87h18.99ZM752.58,521.86c0,15.12,22.87,15.12,22.87,0s-22.87-15.12-22.87,0ZM796.84,521.86c0,15.12,23.05,15.12,23.05,0s-23.05-15.12-23.05,0Z"/>
        <path class="cls-1" d="M875.03,665.51c4.24,5.53,18.99,9.03,21.76.55,1.85-6.08-7.38-10.51-15.49-6.45l-4.06-3.13,4.61-13.46c-12.54-.74-25.08-4.98-35.04-16.41l9.96-13.46c8.48,9.59,21.21,13.28,31.9,13.46,9.03,0,19.18-3.32,19.36-11.8.18-8.11-7.56-11.25-21.02-12.54-17.15-1.47-36.88-7.19-37.06-27.29,0-20.1,20.84-27.66,37.8-27.66,14.01,0,24.89,3.13,35.04,12.17l-10.7,12.54c-7.19-6.64-14.94-8.48-23.97-8.48-11.62-.18-19.36,3.69-19.36,10.88.18,20.65,58.64.74,58.27,40.2-.19,15.49-12.54,26.55-32.64,28.4l-2.03,7.01c13.83-.37,18.81,7.75,18.62,14.57-.74,23.23-32.27,23.23-43.52,8.11l7.56-7.19Z"/>
      </g>
    </g>
    <g>
      <path class="cls-1" d="M249.37,392.34c-53.24,0-96.39,43.16-96.39,96.39s43.16,96.39,96.39,96.39,96.39-43.16,96.39-96.39-43.16-96.39-96.39-96.39ZM249.37,542.81c-29.87,0-54.07-24.21-54.07-54.07s24.21-54.07,54.07-54.07,54.07,24.21,54.07,54.07-24.21,54.07-54.07,54.07Z"/>
      <path class="cls-1" d="M345.76,677.75c0,35.08-28.44,63.51-63.51,63.51-.16,0-.31,0-.47,0v-41.44c.46.03.94.05,1.41.05,12.21,0,22.11-9.9,22.11-22.11s-9.9-22.11-22.11-22.11h-86.1c-22.87,0-41.4-18.54-41.4-41.4h126.56c27.31,0,50.58,17.23,59.55,41.4,2.56,6.89,3.96,14.34,3.96,22.11Z"/>
      <circle class="cls-1" cx="323.19" cy="359.42" r="20.69"/>
    </g>
  </g>
  <g>
    <path class="cls-1" d="M410.74,739.16c0,4.73-1.19,8.32-3.57,10.77s-6.01,3.68-10.88,3.68c-2.23,0-4.42-.25-6.58-.75-2.16-.5-4.15-1.47-5.96-2.91l4.27-6.38c1.2.99,2.46,1.78,3.78,2.37,1.32.58,2.77.87,4.34.87,2.37,0,4.1-.57,5.22-1.72,1.11-1.15,1.67-2.61,1.67-4.4v-2.42h-.1c-.89,1.2-2,2.05-3.32,2.55-1.32.5-2.56.75-3.73.75-1.85,0-3.53-.32-5.04-.95-1.51-.63-2.8-1.52-3.88-2.67-1.08-1.15-1.91-2.51-2.49-4.09-.58-1.58-.87-3.31-.87-5.19,0-1.65.26-3.26.8-4.83.53-1.58,1.29-2.96,2.26-4.17.98-1.2,2.17-2.17,3.57-2.91,1.41-.74,3-1.11,4.78-1.11,1.1,0,2.1.12,3.01.36s1.72.55,2.44.92c.72.38,1.34.8,1.85,1.26.51.46.92.92,1.23,1.36h.1v-3.29h7.1v22.88ZM391.3,728.62c0,.82.15,1.6.46,2.34.31.74.75,1.39,1.31,1.95.57.57,1.22,1.02,1.95,1.36.74.34,1.55.51,2.44.51s1.66-.17,2.42-.51c.75-.34,1.41-.8,1.98-1.36s1-1.22,1.31-1.95c.31-.74.46-1.52.46-2.34s-.15-1.6-.46-2.34-.75-1.39-1.31-1.95-1.23-1.02-1.98-1.36c-.75-.34-1.56-.51-2.42-.51s-1.71.17-2.44.51-1.39.8-1.95,1.36c-.57.57-1,1.22-1.31,1.95s-.46,1.52-.46,2.34Z"/>
    <path class="cls-1" d="M415.98,728.77c0-1.99.36-3.79,1.08-5.4.72-1.61,1.7-2.99,2.96-4.14,1.25-1.15,2.73-2.03,4.42-2.65,1.7-.62,3.5-.93,5.42-.93s3.73.31,5.42.93c1.7.62,3.17,1.5,4.42,2.65,1.25,1.15,2.24,2.53,2.96,4.14s1.08,3.41,1.08,5.4-.36,3.79-1.08,5.4c-.72,1.61-1.71,2.99-2.96,4.14-1.25,1.15-2.72,2.03-4.42,2.65-1.7.62-3.5.93-5.42.93s-3.73-.31-5.42-.93c-1.7-.62-3.17-1.5-4.42-2.65-1.25-1.15-2.24-2.53-2.96-4.14-.72-1.61-1.08-3.41-1.08-5.4ZM423.7,728.77c0,1.88.54,3.41,1.62,4.58,1.08,1.17,2.6,1.75,4.55,1.75s3.47-.58,4.55-1.75,1.62-2.69,1.62-4.58-.54-3.41-1.62-4.58c-1.08-1.16-2.6-1.75-4.55-1.75s-3.47.58-4.55,1.75c-1.08,1.17-1.62,2.69-1.62,4.58Z"/>
    <path class="cls-1" d="M448.27,702.4h7.71v23.75l8.54-9.87h9.46l-9.92,11.26,10.18,13.73h-9.72l-8.43-12.65h-.1v12.65h-7.71v-38.87Z"/>
    <path class="cls-1" d="M484.58,702.4v17.28h.1c.17-.48.46-.96.87-1.44.41-.48.91-.91,1.49-1.29.58-.38,1.27-.68,2.06-.92.79-.24,1.65-.36,2.57-.36,1.95,0,3.53.3,4.73.9,1.2.6,2.13,1.43,2.8,2.49.67,1.06,1.12,2.31,1.36,3.75.24,1.44.36,3,.36,4.68v13.78h-7.71v-12.24c0-.72-.03-1.47-.08-2.24-.05-.77-.21-1.48-.46-2.13-.26-.65-.65-1.18-1.18-1.59s-1.29-.62-2.29-.62-1.8.18-2.42.54c-.62.36-1.09.84-1.41,1.44-.33.6-.54,1.28-.64,2.03-.1.75-.15,1.54-.15,2.37v12.44h-7.71v-38.87h7.71Z"/>
    <path class="cls-1" d="M522.06,738.13h-.1c-.86,1.34-2,2.3-3.42,2.88-1.42.58-2.92.87-4.5.87-1.17,0-2.29-.16-3.37-.49s-2.03-.81-2.85-1.47c-.82-.65-1.47-1.46-1.95-2.42-.48-.96-.72-2.07-.72-3.34,0-1.44.26-2.66.8-3.65.53-.99,1.25-1.82,2.16-2.47.91-.65,1.95-1.16,3.11-1.52,1.17-.36,2.37-.62,3.62-.8,1.25-.17,2.5-.27,3.75-.31,1.25-.03,2.41-.05,3.47-.05,0-1.37-.49-2.46-1.47-3.26-.98-.8-2.13-1.21-3.47-1.21s-2.43.27-3.47.8c-1.05.53-1.98,1.26-2.8,2.19l-4.11-4.22c1.44-1.34,3.12-2.34,5.04-3.01,1.92-.67,3.91-1,5.96-1,2.26,0,4.12.28,5.58.85,1.46.57,2.62,1.4,3.5,2.49.87,1.1,1.48,2.44,1.83,4.04s.51,3.44.51,5.53v12.7h-7.1v-3.14ZM520.16,730.32c-.58,0-1.31.03-2.19.08s-1.71.2-2.52.44c-.81.24-1.49.6-2.06,1.08-.57.48-.85,1.15-.85,2.01,0,.93.39,1.61,1.18,2.06.79.45,1.61.67,2.47.67.75,0,1.48-.1,2.19-.31.7-.21,1.33-.5,1.88-.88.55-.38.99-.86,1.31-1.44.33-.58.49-1.27.49-2.06v-1.65h-1.9Z"/>
    <path class="cls-1" d="M533.99,716.28h7.4v3.39h.1c.24-.48.58-.96,1.03-1.44.45-.48.98-.91,1.59-1.29.62-.38,1.32-.68,2.11-.92.79-.24,1.65-.36,2.57-.36,1.95,0,3.53.3,4.73.9,1.2.6,2.13,1.43,2.8,2.49.67,1.06,1.12,2.31,1.36,3.75.24,1.44.36,3,.36,4.68v13.78h-7.71v-12.24c0-.72-.03-1.47-.08-2.24-.05-.77-.21-1.48-.46-2.13-.26-.65-.65-1.18-1.18-1.59s-1.29-.62-2.29-.62-1.8.18-2.42.54c-.62.36-1.09.84-1.41,1.44-.33.6-.54,1.28-.64,2.03-.1.75-.15,1.54-.15,2.37v12.44h-7.71v-24.99Z"/>
    <path class="cls-1" d="M589.73,739.16c0,4.73-1.19,8.32-3.57,10.77s-6.01,3.68-10.88,3.68c-2.23,0-4.42-.25-6.58-.75-2.16-.5-4.15-1.47-5.96-2.91l4.27-6.38c1.2.99,2.46,1.78,3.78,2.37,1.32.58,2.77.87,4.34.87,2.37,0,4.1-.57,5.22-1.72,1.11-1.15,1.67-2.61,1.67-4.4v-2.42h-.1c-.89,1.2-2,2.05-3.32,2.55-1.32.5-2.56.75-3.73.75-1.85,0-3.53-.32-5.04-.95-1.51-.63-2.8-1.52-3.88-2.67-1.08-1.15-1.91-2.51-2.49-4.09-.58-1.58-.87-3.31-.87-5.19,0-1.65.26-3.26.8-4.83.53-1.58,1.29-2.96,2.26-4.17.98-1.2,2.17-2.17,3.57-2.91,1.41-.74,3-1.11,4.78-1.11,1.1,0,2.1.12,3.01.36s1.72.55,2.44.92c.72.38,1.34.8,1.85,1.26.51.46.92.92,1.23,1.36h.1v-3.29h7.1v22.88ZM570.29,728.62c0,.82.15,1.6.46,2.34.31.74.75,1.39,1.31,1.95.57.57,1.22,1.02,1.95,1.36.74.34,1.55.51,2.44.51s1.66-.17,2.42-.51c.75-.34,1.41-.8,1.98-1.36s1-1.22,1.31-1.95c.31-.74.46-1.52.46-2.34s-.15-1.6-.46-2.34-.75-1.39-1.31-1.95-1.23-1.02-1.98-1.36c-.75-.34-1.56-.51-2.42-.51s-1.71.17-2.44.51-1.39.8-1.95,1.36c-.57.57-1,1.22-1.31,1.95s-.46,1.52-.46,2.34Z"/>
    <path class="cls-1" d="M594.97,728.77c0-1.99.36-3.79,1.08-5.4.72-1.61,1.7-2.99,2.96-4.14,1.25-1.15,2.73-2.03,4.42-2.65,1.7-.62,3.5-.93,5.42-.93s3.73.31,5.42.93c1.7.62,3.17,1.5,4.42,2.65,1.25,1.15,2.24,2.53,2.96,4.14s1.08,3.41,1.08,5.4-.36,3.79-1.08,5.4c-.72,1.61-1.71,2.99-2.96,4.14-1.25,1.15-2.72,2.03-4.42,2.65-1.7.62-3.5.93-5.42.93s-3.73-.31-5.42-.93c-1.7-.62-3.17-1.5-4.42-2.65-1.25-1.15-2.24-2.53-2.96-4.14-.72-1.61-1.08-3.41-1.08-5.4ZM602.69,728.77c0,1.88.54,3.41,1.62,4.58,1.08,1.17,2.6,1.75,4.55,1.75s3.47-.58,4.55-1.75,1.62-2.69,1.62-4.58-.54-3.41-1.62-4.58c-1.08-1.16-2.6-1.75-4.55-1.75s-3.47.58-4.55,1.75c-1.08,1.17-1.62,2.69-1.62,4.58Z"/>
    <path class="cls-1" d="M627.26,702.4h7.71v23.75l8.54-9.87h9.46l-9.92,11.26,10.18,13.73h-9.72l-8.43-12.65h-.1v12.65h-7.71v-38.87Z"/>
    <path class="cls-1" d="M679.92,741.27h-7.4v-3.39h-.1c-.27.48-.63.96-1.05,1.44-.43.48-.95.91-1.57,1.29-.62.38-1.32.69-2.11.93-.79.24-1.65.36-2.57.36-1.95,0-3.54-.3-4.76-.9-1.22-.6-2.16-1.43-2.83-2.49-.67-1.06-1.11-2.31-1.34-3.75-.22-1.44-.33-3-.33-4.68v-13.78h7.71v12.24c0,.72.03,1.47.08,2.24.05.77.21,1.48.46,2.13.26.65.65,1.18,1.18,1.59s1.29.62,2.29.62,1.8-.18,2.42-.54,1.09-.84,1.41-1.44c.33-.6.54-1.28.64-2.03.1-.75.15-1.54.15-2.37v-12.44h7.71v24.99Z"/>
    <path class="cls-1" d="M699.51,723.63c-1.13-1.41-2.62-2.11-4.47-2.11-.65,0-1.29.15-1.9.46s-.93.84-.93,1.59c0,.62.32,1.07.95,1.36.63.29,1.44.55,2.42.77.98.22,2.02.46,3.14.72,1.11.26,2.16.66,3.14,1.21.98.55,1.78,1.29,2.42,2.24.63.94.95,2.2.95,3.78s-.35,2.94-1.05,3.98c-.7,1.05-1.6,1.89-2.7,2.52-1.1.63-2.33,1.08-3.7,1.34s-2.73.39-4.06.39c-1.75,0-3.51-.25-5.3-.75-1.78-.5-3.29-1.38-4.52-2.65l4.68-5.19c.72.89,1.52,1.57,2.39,2.03.88.46,1.89.69,3.06.69.89,0,1.7-.13,2.42-.39.72-.26,1.08-.73,1.08-1.41s-.32-1.14-.95-1.47c-.63-.33-1.44-.6-2.42-.82s-2.02-.46-3.14-.72c-1.11-.26-2.16-.64-3.14-1.16-.98-.51-1.78-1.24-2.42-2.19-.63-.94-.95-2.2-.95-3.78,0-1.47.3-2.74.9-3.8.6-1.06,1.39-1.94,2.37-2.62s2.1-1.19,3.37-1.52c1.27-.33,2.55-.49,3.86-.49,1.65,0,3.31.24,4.99.72,1.68.48,3.1,1.34,4.27,2.57l-4.73,4.68Z"/>
    <path class="cls-1" d="M713.6,735.41c.86,0,1.58.3,2.19.9.6.6.9,1.33.9,2.19s-.32,1.59-.95,2.19c-.63.6-1.35.9-2.13.9s-1.5-.3-2.13-.9c-.63-.6-.95-1.33-.95-2.19s.3-1.58.9-2.19,1.33-.9,2.19-.9Z"/>
    <path class="cls-1" d="M741.67,723.22c-.86-1.03-1.78-1.77-2.78-2.24-1-.46-2.09-.69-3.29-.69-1.34,0-2.52.23-3.55.69s-1.88,1.11-2.55,1.93c-.67.82-1.17,1.77-1.52,2.85-.34,1.08-.51,2.24-.51,3.47s.2,2.39.59,3.47c.39,1.08.94,2.03,1.65,2.85.7.82,1.55,1.46,2.54,1.93s2.11.69,3.34.69c2.64,0,4.68-.99,6.12-2.98l2.98,2.83c-1.17,1.34-2.54,2.31-4.11,2.93-1.58.62-3.24.93-4.99.93-1.85,0-3.55-.31-5.09-.93s-2.85-1.49-3.93-2.62-1.92-2.47-2.52-4.01c-.6-1.54-.9-3.24-.9-5.09s.3-3.5.9-5.04c.6-1.54,1.45-2.88,2.54-4.01,1.1-1.13,2.41-2.01,3.93-2.65,1.53-.63,3.21-.95,5.07-.95s3.47.31,5.06.93c1.59.62,2.99,1.58,4.19,2.88l-3.19,2.83Z"/>
    <path class="cls-1" d="M747.94,729.24c0-1.88.33-3.6.98-5.14.65-1.54,1.54-2.87,2.67-3.98s2.49-1.98,4.06-2.6c1.58-.62,3.29-.93,5.14-.93s3.56.31,5.14.93c1.58.62,2.93,1.48,4.06,2.6,1.13,1.11,2.02,2.44,2.67,3.98.65,1.54.98,3.26.98,5.14s-.33,3.6-.98,5.14c-.65,1.54-1.54,2.87-2.67,3.98-1.13,1.11-2.49,1.98-4.06,2.6-1.58.62-3.29.93-5.14.93s-3.57-.31-5.14-.93c-1.58-.62-2.93-1.48-4.06-2.6-1.13-1.11-2.02-2.44-2.67-3.98-.65-1.54-.98-3.26-.98-5.14ZM752.26,729.24c0,1.27.2,2.44.59,3.52.39,1.08.97,2.02,1.72,2.83.75.81,1.65,1.44,2.7,1.9s2.22.69,3.52.69,2.48-.23,3.52-.69c1.04-.46,1.94-1.1,2.7-1.9.75-.8,1.33-1.75,1.72-2.83.39-1.08.59-2.25.59-3.52s-.2-2.44-.59-3.52c-.39-1.08-.97-2.02-1.72-2.83-.75-.81-1.65-1.44-2.7-1.9-1.05-.46-2.22-.69-3.52-.69s-2.48.23-3.52.69-1.95,1.1-2.7,1.9c-.75.81-1.33,1.75-1.72,2.83-.39,1.08-.59,2.25-.59,3.52Z"/>
    <path class="cls-1" d="M779.88,722.91c0-1.1-.03-2.12-.1-3.08-.07-.96-.1-1.83-.1-2.62h3.8c0,.65.02,1.3.05,1.95.03.65.05,1.32.05,2.01h.1c.27-.58.66-1.15,1.16-1.7.5-.55,1.09-1.04,1.77-1.46.69-.43,1.46-.77,2.31-1.03.86-.26,1.78-.39,2.78-.39,1.3,0,2.39.16,3.26.49.87.33,1.6.72,2.19,1.18.58.46,1.04.96,1.36,1.49.33.53.59,1,.8,1.41.89-1.44,1.92-2.56,3.08-3.37,1.17-.8,2.67-1.21,4.53-1.21,1.71,0,3.15.23,4.32.69,1.17.46,2.11,1.13,2.83,2,.72.87,1.23,1.94,1.54,3.19s.46,2.65.46,4.19v14.6h-4.01v-14.4c0-.82-.09-1.63-.26-2.42-.17-.79-.48-1.49-.93-2.11-.45-.62-1.05-1.11-1.8-1.49-.75-.38-1.71-.57-2.88-.57-.86,0-1.66.17-2.42.51-.75.34-1.41.82-1.98,1.44-.57.62-1.01,1.36-1.34,2.24-.33.87-.49,1.84-.49,2.91v13.88h-4.01v-13.63c0-2.67-.36-4.57-1.08-5.68-.72-1.11-1.9-1.67-3.55-1.67-1.3,0-2.43.22-3.37.67-.94.45-1.71,1.08-2.31,1.9-.6.82-1.05,1.8-1.34,2.93-.29,1.13-.44,2.38-.44,3.75v11.72h-4.01v-18.36Z"/>
  </g>
</svg>