<?xml version="1.0" encoding="UTF-8"?>
<svg id="katman_1" data-name="katman 1" xmlns="http://www.w3.org/2000/svg" viewBox="0 0 1080 1080">
  <defs>
    <style>
      .cls-1 {
        fill: #3c6147;
      }
    </style>
  </defs>
  <g>
    <path d="M273.99,393.76h-.04l-1.13,5.56-7.43-5.56h-92.61v-.03h-14.56v-.33c8.2-.78,14.46-7.62,14.56-15.82v-126.62c-.1-8.21-6.37-15.04-14.56-15.82v-.32h14.56s18.62,0,18.62,0h0s14.56,0,14.56,0v.32c-8.2.79-14.46,7.62-14.56,15.84v140.88h37.13c22.08,0,42.29-12.37,52.35-32.02v.04s0-.01,0-.02l-6.89,33.9Z"/>
    <path d="M331.55,393.43v.32h-45.48v-.32c8.26-.79,14.57-7.73,14.57-16.03v-66.68h-.01v-15.46c0-4.51-4.53-7.61-8.74-5.97l-6.99,2.73v-.89l15.73-7.48,16.34-7.77v17.37h.01v84.16c0,8.3,6.31,15.24,14.57,16.03ZM308.77,260.27l-13.8-13.57,13.8-13.58,13.81,13.58-13.81,13.57Z"/>
    <path d="M365.28,275.65h48.45v1.91h-48.45v96.88h.01v2.97c0,8.3,6.31,15.24,14.57,16.03v.32h-45.48v-.32c8.26-.79,14.57-7.73,14.57-16.03v-2.97h0v-96.88h-12.44v-1.91h12.44c0-19.39,15.51-33.8,32.13-44.07,9.91-6.06,21.32-9.22,32.94-9.12,6.97,0,13.89,1.12,20.5,3.32l-12.95,11.71c-10.59-6.05-21.66-7.7-27.74-8.13-4.17-.1-8.29.96-11.89,3.07-11.38,6.95-16.67,13.35-16.67,43.21Z"/>
    <path d="M506.54,368.53h12.45c-10.53,16.69-29.38,26.89-52.13,26.89-25.57,0-46.22-12.87-55.66-33.38-.27-.59-.54-1.18-.79-1.79-3.08-7.36-4.77-15.63-4.77-24.61,0-35.29,25.93-59.77,61.22-59.77,24.79,0,44.94,12.09,54.75,31.51.19.38.39.76.58,1.15.1.2.19.4.28.61l-17.2,8.18-10.12,4.81-66.72,31.72c7.13,20.36,21.83,36.75,41.81,39.03,16.8,1.91,30.19-6.97,36.3-24.34ZM427.8,351.98l76.79-36.51c-7.37-19.42-21.77-34.86-41.12-37.06-20.8-2.37-36.38,11.79-39.35,37.91-1.35,11.88,0,24.33,3.68,35.66Z"/>
  </g>
  <g>
    <path d="M421.36,644.4c5.04-.36,9.66-4.3,14.12-6.63v1.5c-7.94,4.89-20.05,12.92-25.88,13.08-15.15.42-32.15-7.12-32.15-41.79v-.81h-.03v-57.39c0-5.37-5.84-8.64-10.45-5.89-3.09,1.84-6.33,3.64-9.68,5.5-2.68,1.49-5.43,3.02-8.23,4.63v75.06h-16.34v-49.97c0-6.07-7.23-9.12-11.67-4.97-14.99,14.03-29.22,34.67-39.39,68.79l-2.1,6.94-1.85.68-32.82-71.74-30.96,71.69h-.95l-46.74-102.17-8.03-15.69h44.13v.34c-11.92,1.44-21.7,7.2-12.4,27.82l22.21,48.6,9.22,19.02,22.49-51.88-12.88-28.16-8.03-15.69h44.13v.34c-11.92,1.44-21.7,7.2-12.4,27.82l22.21,48.6,8.4,17.41c19-49.99,47.7-65.93,71.17-78.96,14.94-8.29,27.84-15.45,33.61-29.79,5.28-13.12,2.14-25.8-8.39-33.92-12.07-9.31-29.08-9.44-41.36-.31-2.43,1.81-4.36,3.83-5.8,5.97,1.81-1.29,4-2.07,6.39-2.07,6.08,0,11,4.93,11,11s-5.06,11.01-11.01,11c-6.08,0-11-4.93-11-11,.2-5.7,3.55-11.94,9.4-16.28,12.89-9.59,30.76-9.45,43.44.33,8.29,6.4,12.26,15.44,11.48,25.36v22.34h41.88l-14.03,12.68c-6.09-.06-22.17-.2-28.31-.2v12.23h.05v56.93c0,26.4,14.92,30.58,27.55,29.66ZM363.65,650.65v.32h-45.48v-.32c8.26-.79,14.57-7.73,14.57-16.03v-2.97h16.34v2.97c0,8.3,6.31,15.24,14.57,16.03ZM329.9,501.34"/>
    <path d="M567.97,652.81v.32h-45.48v-.32c8.26-.79,14.57-7.73,14.57-16.03v-61.2c0-26.41-14.93-32.84-27.55-32.84-14.47,0-25.49,8.27-39.27,17.45v76.59c0,8.3,6.31,15.24,14.57,16.03v.32h-45.48v-.32c8.26-.79,14.57-7.73,14.57-16.03v-135.63c0-4.51-4.53-7.61-8.74-5.97l-6.99,2.73v-.89l15.73-7.48,16.34-7.77v75.9c14.01-9.19,30.81-22.04,51.02-22.04,15.15,0,32.15,7.12,32.15,41.79v59.61c.13,8.19,6.38,15,14.56,15.78Z"/>
  </g>
  <g>
    <path d="M300.2,763.67l.25,71.5c-15.97,13.27-38.33,22.11-59.95,22.36-37.59.49-71.74-22.6-81.82-60.2-21.38-80.84,69.04-133.42,131.2-88.45-.74,2.7-1.47,4.91-2.95,10.32-28.75-32.43-70.76-30.96-95.09-2.21-26.54,28.99-26.29,74.94-6.88,103.44,16.46,24.08,37.35,32.43,55.28,32.68,14.74,0,35.87-7.13,46.44-16.22l-.49-68.8c-19.9-.25-24.08,0-39.31,2.7v-7.13h53.32Z"/>
    <path d="M446.88,857.53h-14.5c-6.88-34.15-25.8-64.62-58.23-69.29h-35.13v69.29h-14v-165.36h33.91c34.15,0,49.88.25,64.87,9.34,13.76,8.35,22.85,22.36,22.85,38.82,0,25.8-20.39,46.93-45.95,47.91,24.32,11.55,42.51,38.08,46.19,69.29ZM383.49,784.06c30.22,0,47.91-19.41,48.4-42.75.25-15.72-6.88-31.2-22.11-39.31-14-7.37-22.6-5.65-70.76-5.65v87.72h44.47Z"/>
    <path d="M594.55,805.19h-86.24l-21.62,52.33h-15.23l68.55-165.11h15.23l68.3,165.11h-12.29s-3.93-18.18-16.71-52.33ZM592.83,800.77l-40.54-101.47-42.26,101.47h82.8Z"/>
    <path d="M788.9,828.78c-53.81,53.32-128.26,26.29-143.73-31.21-21.38-80.83,69.04-133.41,131.2-88.45-.74,2.46-1.47,4.91-2.95,10.32-28.75-32.43-71.25-30.96-95.33-2.21-26.78,28.99-26.54,74.94-6.88,103.44,29.98,43.73,73.96,33.91,91.15,22.36,8.6-5.65,14.99-14.25,19.16-21.13,2.46,2.46,4.91,4.91,7.37,6.88Z"/>
    <path d="M827.23,696.35v67.32h67.81v4.42h-67.81v85.5h52.58c14.74,0,44.47-8.35,44.47-8.35v12.29h-111.06v-165.36h111.3v12.04s-29.98-7.86-44.72-7.86h-52.58Z"/>
  </g>
  <g>
    <path class="cls-1" d="M226.16,456.2c-.16.77-.34,1.42-.77,2.09-.81,1.72-8.85,8.28-9.66,10.01-1.37,2.29-3.34,2.64-5.7,2.9-.87.1-1.25.02-1.97-.78-.21-.73-.62-1.06-.81-1.67-1.51-2.21-2.24-3.14-1.8-5.95-.04-.37-.7-.67-1.06-.51-1.17.76-2.49,1.29-3.54,2.03-4.94,4.07-9.94,7.53-14.07,12.14-.56.57-1.38,1.16-2.06,1.74-.54.81-1.35,1.41-2.01,2.24-1.44,1.67-2.91,3.09-3.69,5.06-1.59,2.57-3.7,5.06-5,7.97-.47,1.43-1.51,2.18-1.88,3.35-.4.92-.76,1.09-1.54.8-.52-.19-.9-.15-1.03-.26-.73-.92-1.55-1.46-2.14-2.27-.36-.96-.23-1.98-.32-2.85.29-.78.37-1.17.8-1.85,1.58-3.82,3.17-7.51,4.82-11.72,2-4.49,3.84-9.35,5.56-14.06.77-2.09,1.69-3.96,2.17-6.4.34-1.42,2.36-2.4,3.84-1.56l2.11.89c.44.58.91,1.4.46,1.83-1.41,1.92-1.52,4.31-2.44,6.18l-2.66,6.45c-.12.01-.07.51.07.62l.37-.04c4.48-4.77,9.67-8.88,15.02-12.62,2.93-1.84,5.9-3.3,8.71-5.13,1.98-1.35,4.68-.78,6.23.68l2.22,1.88c.57.56.69,1.68-.08,2.64-.69.58-.99,1.24-1.39,2.17-.2,1.53-1.45,2.67-1.55,4.07,3.03-.97,11.75-9.36,14.47-10.8.26.1.32.59.33.72Z"/>
    <path class="cls-1" d="M276.1,457.2c.03.25-.58.44-.7.46-2.08.49-3.7,1.67-5.71,2.78-2.94,1.71-5.92,3.18-8.75,4.76-.34.29-.84.35-.94.61-2.27,2.14-5.31,2.99-7.75,4.77-2.6,1.42-5.19,2.97-7.65,4.51-3.48,2.53-7.4,4.48-11.67,5.59-.72.33-1.21.39-1.64,1.06-2.37,1.27-4.57.64-6.76.14-1.41-.22-2.47-.72-3.43-1.49-1.61-.95-2.41-2.49-3.08-3.92-.81-2.67-.86-3.17-.62-5.45l.69-1.71c1.48-4.69,4.05-8.62,7.43-12.01,3.11-3.61,6.38-6.87,10.34-9.58,1.02-.99,2.67-1.93,4.25-2.36,1.06-.62,2.53-.91,3.59-1.54,1.49-1.3,2.82-1.7,4.42-.88.29.34.62-.07,1.16.25.51.07,1.27.11,1.42.34,1.09.76,1.85,1.92,2.29,2.5,1.19,1.62,1.38,3.36.3,4.86-1.39,2.17-2.13,4.51-4.49,5.78l-1.61,1.31c-3.04,3.11-6.99,4.81-11.01,5.89-1.06.62-2.44.65-3.55.78-1.61.18-3.64.04-5.62.26-.37.04-.62.07-1.06.62-1.66,3.08-3.84,5.96-4.6,9.31-.23,1.28.35,1.97,1.26,2.24,1.41.22,3.1.78,4.26-.1,2.73-.31,5.36-1.49,7.76-2.39,2.07-.61,4.14-2.23,6.05-3.07,2.23-1.38,3.98-2.58,5.96-3.94q.7.67,1.24-.14c.77-.97,1.81-1.71,3-2.35.19-.52.81-.59,1.53-.93,3.89-2.2,7.87-4.78,11.53-6.83,1.15-.88,2.26-1.13,3.44-1.77.95-.48,2.12-1.24,2.92-1.96,1.55-.68,2.56-.67,3.71.59.41.33.81.54,1.2.62.92.4,1.57,1.7.9,2.41ZM227.67,462.93c.41.33,1.12-.13,1.49-.17.47-.3.97-.36,1.59-.43l.03.25c1.09-.37,2.56-.67,3.52-1.03,1.43-.66,2.5-1.16,4.03-2.09,3.23-1.37,5.79-3.17,8.17-5.44,1.28-.9,2.23-2.51,2.68-4.07.33-.41.24-1.16.18-1.78.3-.66-.22-.85-.77-1.29-.41-.33-.85.22-.93.61-.07.51-.68.7-1.42.79-2.7.56-5.34,1.61-7.53,3.36-2.93,1.84-5.17,4.23-7.44,6.36l-2.98,3.6c-.11.14-.77.97-.6,1.32Z"/>
    <path class="cls-1" d="M312.62,454.95l-.08-.74c-.37.04-1.11.13-1.4.91-.37.04-.62.07-.96.36-.95.48-1.56.68-1.82,1.71-.47.3-1.09.37-1.29.77-.87.1-1.32.53-1.7,1.57l1.24-.14.06.5c-1.48,1.3-3.48,2.53-4.44,4.02-1.91.84-3.23,2.5-4.72,3.8-1.76,1.08-3.24,2.38-4.74,3.55-2.79,1.95-5.54,4.27-8.86,6.02-1.56.68-2.97,1.47-4.51,2.27-2.97,1.47-6.44,1.86-9.76,1.36-.25.03-.9-.15-1.03-.26-1.04-1.39-2.26-2.25-3.09-4.04-1.09-1.89-1.84-4.06-1.84-6.32.15-2.03.43-3.94.72-5.86,1.33-4.92,3.34-9.29,6.13-13.5.85-1.35,2.2-2.76,3.05-4.11.99-1.24,2.45-1.66,3.88-1.19,1.2.62,2.29,1.37,3.38,2.13.44.58.18,1.61-.31,1.67l-.37.04c-1.78-.18-3.01,1.09-3.48,2.53-1,2.25-2.07,3.87-2.87,5.72-1.67,2.95-3.31,6.27-3.96,9.36-.12,1.14-.51,2.19-1.12,3.39-.33,1.54-.3,2.92.27,4.61,1.21.74,3.07.53,4.64-.02,1.43-.66,2.99-1.34,4.53-2.14,1.44-.54,2.86-1.33,4.39-2.25,1.14-1.01,2.83-1.58,4.19-2.86,2.94-1.71,5.23-3.73,8.24-5.95,2.21-1.51,4.14-3.36,6.6-4.89.61-.19,1.54-.8,1.98-1.35,1.2-1.64,3.2-2.75,4.59-3.78,1.4-.91,2.43-1.78,3.7-2.8.58-.44,3.38-2.27,4.14-2.23.65.18-.47,1.43.17,2.62-1.43,2.92-2.92,5.23-3.52,5.54ZM279.91,428.78c1.14-1.01,2.32-1.64,3.95-1.7.25-.03.54.32.79.29.72.8,1.78,1.3,2.03,2.41.07.62.53,1.32.11,2.12-.81.59-1.47,1.42-2.82,1.7l-1.12.13c-.39-.08-1.13,0-1.9-.16-2.05-.39-2.87-3.19-1.04-4.78ZM312.22,452.49c-1.8.71-3.45,1.65-5.08,2.83-2.42,1.91-4.87,3.56-7.29,5.47-.47.3-1.16.88-1.13,1.13,1.24-.14,2.17-.75,3.22-1.49,3.13-2.24,6.23-4.85,9.5-6.97.25-.03.55-.69.77-.97Z"/>
    <path class="cls-1" d="M425.65,436.64c-1.05.75-2.06,1.74-2.74,2.44-2.52,2.17-4.68,4.17-7.38,5.73-.48.18-.7.46-.92.73-3.38,3.4-7.67,5.39-11.17,7.79-2.95,1.71-5.64,3.4-8.2,5.2l-4.11,2.47c-1.09.37-2.08.49-2.97.34-.65-.18-1.19-.49-1.46-.71-1.64-1.2-2.33-2.87-2.92-4.69-.57-1.69-.93-3.79-.66-5.82.59-2.58,1.41-5.31,2.08-8.27l-.11-.99c-.34.29-.47.3-.59.32-2.62,1.3-4.95,2.82-7.15,4.45-1.42.79-2.81,1.82-3.92,3.08-1.64,1.06-3.11,2.49-4.5,3.52l-4.85,3.69-7.07,6.32c-.33.41-.8.72-1.28.9-1.27,1.02-2.38,1.15-3.4-.12-.76-1.17-1.66-2.45-2.2-3.89-.59-.81-.23-1.98.04-3.02.48-1.31.46-2.56.93-4,1.61-5.7,2.68-11.85,4.03-17.65l.24-2.29c-1.02-.14-1.31.65-1.67.82-.73.21-1.17.76-1.64,1.06-.19.52-.66.83-1.02.99-.7.46-1.03.87-1.49,1.3-.69.58-.89.98-1.49,1.3-2.68,2.94-5.5,5.77-8.44,8.61-.55.69-1.13,1.13-1.91,1.97-.9,1.99-2.38,3.41-3.83,4.95-1.69,1.7-3.33,3.89-5.07,6.22-1.1,1.38-2.05,2.99-3.38,4.52,0,0,.04.37-.08.39-2.61,2.43-4.46,6.03-7.03,8.83-1.38,1.16-2.47,2.54-3.45,3.9-.33.41-.56.57-1.31.65-.81.59-1.5.04-2.04-.27-2.88-2.18-3.94-4.83-3.46-8.4.45-1.56.68-2.84,1.02-4.26,1.01-4.38,2.81-8.48,4.74-12.46.88-2.23,2.21-3.76,2.44-6.18.4-.92,1.48-1.3,2.13-1.12,1.45.59,2.66,1.33,3.41,2.38,1.02,1.27,1.22,3,.21,4.12-1.06,1.75-1.55,4.07-2.88,5.6-.52.94-.89,2.11-1.4,3.17-1.21,2.65-2.18,5.14-3.29,7.53-.21.4-.15.89-.11,1.27,1.26-1.02,1.8-1.83,2.58-2.68l11.29-14.46c1.88-2.22,4.04-4.22,6.03-6.58,3.12-3.49,6.5-6.89,9.76-10.27,2.17-1.88,4.1-3.73,6.16-5.47,1.14-1.01,2.63-2.31,4.18-2.98,1.16-.88,2.5-1.16,3.76-.05.19.6.81.54.95.65,1.83.67,2.73,1.95,2.43,3.74-.19,2.78.01,5.65-1.06,8.4-.55.69-.56,1.69-.59,2.58-.05,1.76-1.27,3.16-1.82,4.98-.19,1.65-.1,3.53-.58,4.84-.73,1.34-.77,2.1-1.15,3.14l.03.25q.27.22.52.19c.12-.01.1-.26.59-.32,4.59-3.78,9.45-7.47,14.02-11.38,3.8-3.07,7.91-5.54,12.2-7.53.82-.47,1.75-1.2,2.32-1.64.92-.73,2.05-.73,3.07-.6.62-.07.91.27.94.52.19.61.11.99.86.91.99-.11,1.56.45,1.63,1.07.1.87.15,1.36.1,2-.45,1.56-.79,2.98-.98,4.63-.39,2.05-1.31,3.91-2.21,6.02-.64,2.08-1.67,4.08-1.68,6.22.07.62.38,1.09.83.66,3.33-1.63,6.26-3.47,9.43-5.46,2.46-1.53,4.83-2.81,6.79-4.28,4.85-2.68,9.49-5.97,13.85-9.6,1.98-1.35,3.71-2.68,5.72-3.79.81-.59,1.49-.17,1.83.67.9,1.28.75,2.17-.52,3.2ZM340.43,442.26c-.99.11-1.39,1.04-1.7,1.57.62-.07,1.58-.43,1.7-1.57ZM343.25,439.44c-.5.06-.87.1-1.02.99.37-.04.74-.08,1.02-.99ZM345.41,437.43c-.62.07-1.21.39-1.73,1.33.99-.11,1.42-.79,1.73-1.33ZM418.49,439.96c-.61.19-1.43.66-1.69,1.7.83-.47,1.43-.66,1.69-1.7ZM421.26,437.76c-.62.07-1.21.39-1.22,1.39.5-.06,1.2-.51,1.22-1.39Z"/>
    <path class="cls-1" d="M487.62,433.01c-1.46.42-2.6,1.42-3.34,2.64-2.38,1.15-6.52,3.37-7.46,3.98q-.21.4-.19.52c.25-.03.54.32.54.32,1.07-.5,2.26-1.13,3.58-1.66v.12s-.11.01-.11.01c-1.46.42-2.33,1.64-2.96,2.72l-.37.04c-1.5.04-1.47,1.42-2.3,1.89l-3.45,1.65c-2.31,1.77-4.68,3.04-7.33,3.97-1.94.6-3.9,1.07-5.95,1.8l-1.24.14c-1.59,1.44-3.31.75-4.85.42-1.42-.34-2.96-.67-3.77-2.21-.18-.48-.47-.83-.66-1.43-2.77-2.32-2.74-5.34-2.45-8.38.05-1.76.63-3.33.92-5.13l-.03-.25q-.41-.33-.51-.07l-8.1,7.19c-1.62,1.19-3.23,2.5-4.61,3.66-1.7,1.57-3.26,3.38-5.13,4.6-1.92,1.85-4.14,3.36-6.22,4.97-.36.17-.81.59-1.18.64-1.36.15-2.71.43-4.09.46-3.42-.24-4.86-1.96-5.78-5.62-.28-1.35.05-2.89.43-3.94.73-1.34,1.81-2.84,2.53-4.3,2.25-3.39,4.92-6.46,7.22-9.35,2.31-2.9,4.95-5.08,7.8-7.66,2.41-2.03,5.28-3.23,8.16-4.44,1.64-1.06,5.55.25,6.59,1.64.72.8.71,1.8-.19,1.65-3.33-.63-5.63,1.26-7.54,2.11-2.91,1.96-4.78,4.31-7.01,6.82-.95,1.61-2.42,3.03-3.85,4.83-2.16,2-3.41,4.28-5.17,6.48-.94.61-.3,1.79-.99,2.37q-2.2,2.76-1.54,3.06c1.12-.13,1.9-.97,2.85-1.45,3.4-2.14,6.61-4.77,9.57-7.48,3.34-2.64,6.53-5.51,9.72-8.38,2.39-2.15,4.69-4.04,7.11-5.95.59-.32.92-.73,1.28-.9.22-.28.59-.32.72-.33,1.16,1.37,2.47.72,3.65,1.22.15.23.52.19.91.27-.63,1.08.98.89,1.08,1.76-.18.65.56,1.57-.02,2.01-.48,1.31-.19,2.78-.43,3.94-.68,1.71-1.22,3.65-1.66,5.33-.38,1.05-.77,2.1-.89,3.24.13,1.12-1.19,1.64-.46,2.56,1.16.25,2.03.15,3.14.02,3.1-.35,6.11-1.45,9.07-3.04l6.36-3.73c6.52-3.37,12.77-6.97,19.35-9.85,1.45-.54,3.28-1,4.82-1.8.37-.04.62-.07.96-.36l.29.34c-.11.14-.07.51-.07.51-.11.14-.34.29-.44.55-2.23.25-4.49,1.39-6.39,2.35v.12c1.05.26,2.05.27,2.95.42,0,0-.11.14-.31.54-.85.22-1.93.72-2.56,1.8ZM433.21,439.17l-.25.03.03.25.22-.28ZM433.73,438.23c-.12.01-.31.54-.3.66.25-.03.37-.04.3-.66ZM435.34,436.92c-.62.07-1.17.76-1.48,1.3.87-.1,1.45-.54,1.48-1.3ZM437.18,435.46c-.62.07-1.2.51-1.59,1.44,1.13,0,1.57-.55,1.59-1.44ZM439.15,433.98c-.87.1-1.6.31-1.62,1.19.5-.06,1.6-.31,1.62-1.19ZM440.85,432.41c-.99.11-1.44.54-1.71,1.57.87-.1,1.32-.53,1.71-1.57ZM442.7,430.94c-.98.24-1.57.55-1.72,1.45.87-.1,1.31-.65,1.72-1.45ZM444.41,429.49c-1.13,0-1.34.4-1.72,1.45.74-.08,1.46-.42,1.72-1.45ZM446.01,428.06c-.87.1-1.46.42-1.61,1.31.88.03,1.58-.43,1.61-1.31ZM446.45,427.5h-.12s.01.14.01.14l.11-.14ZM469.52,442.84c-.87.1-1.76-.05-2.73.31-2.42.78-4.71,1.66-7.36,2.59-.13.01-.22.28-.69.58l.03.25s.02.12.26.1c0,0,.01.12.26.1,1.71-.44,3.15-2.11,5.52-1.13l.37-.04c1.14-1.01,3.25-1.25,4.33-2.75ZM470.25,439.25c-.04-.37-.29-.34-.41-.33l-.25.03c.29.34.41.33.41.33l.25-.03ZM471.36,442.39c-.13.01-.25.03-.08.39-.01-.12.11-.14.08-.39ZM472.92,441.83c-.12.01-.15-.23-.28-.22-.49.06-.84.35-.8.72l.99-.11s.11-.14.08-.39ZM472.24,438.02l-.37.04.4.21-.03-.25ZM474,436.94c-.35.29-1.38.03-1.65.94l1.12-.13c.49-.06.59-.32.54-.81ZM477.22,435.44c-1.38.03-2.23.25-2.97,1.47,1.02.13,2.21-.38,3-1.22l-.03-.25ZM480.18,433.85c-1.27-.11-2.08.49-2.97,1.47,1.38-.03,2.35-.27,2.97-1.47ZM482.19,432.75l-1.49.17c-.12.01-.18.65-.15.9.5-.06,1.14.12,1.64-1.06ZM480.98,438.66c-.12.01-.23.15-.23.15,0,0,.11-.14.23-.15ZM487.47,430.64h.12c-2.15-.15-3.79.92-5.42,1.98v.12c1.86-.33,3.54-1.03,5.3-2.1ZM485.11,433.05v-.12s-.26.03-.26.03l.26.1ZM491.46,429.31c-.22.28-.43.68-.4.92h-.12c-.54-.3-.91-.26-.6-.8.59-.32.74-.08,1.12-.13ZM491.59,429.3q-.03-.25.22-.28c-.11.14-.23.15-.22.28Z"/>
    <path class="cls-1" d="M512.72,451.89c-.37.04-.47.3-.7.46.1.87.23,1.98-1.1,2.51-.33.41-.52.94-.08,1.52l-.06.63c-.74.08-1.46.42-1,1.12-.47.3-.78.84-.7,1.59.1.87-.85.22-1.06.62-.78,1.97-1.59,3.7-2.4,5.42-.66,1.96-1.84,3.72-2.95,4.98-.84,1.48-1.5,2.3-2.35,3.66-.41.8-.73,1.34-1.59,1.44.11.99-.41,1.93-.97,2.5-1.07,1.63-2.17,3.01-3.5,4.54-.92.73-1.41,1.92-2.49,2.42-.33.41-.44.55-.8.72-2.31,1.77-4.1,1.47-6.24-.8-1.99-2.03-3.21-5.03-3.16-7.93-.11-2.12.14-4.28,1.43-6.19,1.7-2.7,3.12-5.75,4.98-8.1,1.24-1.27,2.21-2.64,3.45-3.9,3.2-3.88,7.12-6.96,10.75-10.38.11-.14.61-.19.98-.24-.03.88-.88,1.1-1.32,1.66-1.25,1.15-2.28,2.02-3.18,2.99-.45.43-.63,1.08-.58,1.57.91-.86,1.86-1.34,2.63-2.31,2.25-2.26,4.51-4.53,7.22-6.09l.74-1.21c1.58-.43,2.6-1.42,3.75-2.31.44-.55.43-.68.77-.97.32-.54.04-.76-.48-.95.36-.17.29-.79.38-1.05,1.16-.88,1.85-2.47,2.46-3.79.27-.91.55-1.82,1.34-2.54-.06-.5.27-.91.38-1.05.2-1.53.3-2.92,1.69-3.96.03.25.04.37.19.61,0,0,.03.25.3.47-.03-.25-.06-.5.07-.51l-.07-.62-.5.06c.12-2.27,1.16-4.15,1.81-6.23.72-2.47,1.6-4.7,2.35-6.92-.01-.12-.17-.36-.18-.48l-.25.03c-.11.14-.36.17-.58.44-.11.14-.34.29-.55.69-1.62,2.32-3.52,4.41-5.55,6.4-1.48,1.3-2.57,2.8-4.07,3.98l-4.58,5.04c-1.74,2.33-4.04,4.22-5.55,6.4-1.76,2.21-4.22,3.74-6.55,5.39-1.05.75-2.26,1.13-2.92,1.96-1.18.64-1.93.72-3.04.85-2.46.4-3.98-.8-5.07-2.69-.83-1.79-1.56-3.84-.67-5.95.44-1.68,1.5-3.43,2.37-4.54,2.58-3.81,5.45-7.27,9.02-10.18,3.19-2.87,6.67-5.4,10.04-7.79,2.04-.86,4.22-2.61,6.26-3.47.59-.32,1.07-.5,1.46-.42,2.03.15,4.28.14,6.35,1.79.29.34.66.3,1.1-.25,1.32-1.65,2.65-3.19,4.01-4.47.23-.15.55-.69,1.02-.99.93-1.74,2.46-1.53,3.65.09.03.25.2.61.22.85-1.07,3.89-1.82,8.36-3.28,12.04-.48,1.31-.93,2.87-1.77,4.34-.82,1.6-1.62,3.45-1.9,5.36.07.62,0,1.13-.35,1.29-.4.92-1.03,2-.92,2.99,1.61-.18,2.24-1.26,3.67-1.92,1.06-.62,1.86-1.34,2.86-1.33l.02.12c-1.49,1.3-3.25,2.38-4.88,3.44-.36.17-.99.11-1.6.31l-.07-.62c-.36.17-.32.54.07.62-.13,1.02-1,1.12-1.18,1.77.03.25-.45.43.06.5.06.5.3.47.25-.03,1.65-.94,3.07-1.73,4.46-2.76,1.64-1.06,3.52-2.16,5.3-3.11,2.13-1.12,4.46-2.76,6.68-4.15.25-.03.23-.15.21-.4-1.12.13-2.08.49-3.03.97-.56.57-1.39,1.04-2.41.9.11-.14.08-.39.3-.66,2.57-1.67,5.08-2.83,7.73-3.76,2.15-1,4.15-2.1,6.62-2.51,1.97-1.48,3.59-.41,5.14,1.05.41.33,1.68.44,1.79,1.43.08.74-.34,1.42-.84,1.48l-.5.06c-2.6-.84-4.74.29-7.12,1.43-.37.04-.74.08-.96.36-1.03.87-1.97.35-2.63.05-.04-.37.45-.43.92-.73.12-.01.21-.4.67-.7-1.12.13-2.2.5-3.15.98-.22.28-.19.52-.43.68l1.61-.18c.04.37.11.99-.01,1.01-.85.22-1.84.33-2.59.42l.44-.55c.09-.26.2-.4.55-.69-1.86.21-3.52,1.03-4.9,2.19l.03.25c-1.36.15-2.45.53-2.94,1.71,1.02.14,1.98-.22,3.03-.97.07.62-.26,1.03-.36,1.3-.33.41-.58.44-.96.36-.65-.18-.99.11-1.1.25-.72.33-1.24.14-1.95.47l-.07-.62c-.5.06-.99.11-1.17.76l1.24-.14c.15,1.36-.64,2.08-1.24,2.4-.84.35-1.61.18-2.33.51l-.28-.22s-.03-.25.22-.27l1.17-.76c.59-.32,1.32-.53,1.21-1.52-1.12.13-1.79.83-3.1,1.48-1.06.62-2.45,1.66-3.48,2.53-.23.15-.58.44-.57.57,1.28.23,2.07-.61,2.92-.83.19-.52.31-.54.81-.59,0,0,.12-.01.18.48l.29.34c-.81.59-1.76,1.08-2.46,1.53-.69.58-.9-.15-1.66-.19l-.08-.74c-1.07.5-1.76,1.08-2.69,1.69-.78.84-.36,1.3-.3,1.79l.37-.04.03.25s.13-.01.14.11c-.07.51-.13.01-.14-.11l-.37.04-.03-.25c-.33.41-.77.97-1.25,1.15,0,0-.12.01-.09.26l.16.36c-.62,1.2-1.36,2.41-1.85,3.6-.3.66-.34,1.42-.95,1.61.1.87-.19,1.65-1.25,2.28-.48.18-.44.55-.38,1.05l.04.37q.12-.01.27.22c-.23.15-.25.03-.27-.22ZM510.65,452.5l-.14-1.24c-.33.41-.56.57-1.06.62.08.74.13,1.12-.58,1.57-.06-.5-.13-1.12.33-1.54.15-.9.33-1.54,1.18-1.77.15-.9.35-1.3.41-1.93,0,0-.06-.5-.18-.48l-.49.06c-.96,1.49-2.08,2.75-3.49,3.53-.58.44-1.02.99-1.81,1.71-2.39,2.15-4.77,4.43-7.15,6.71-1.8,1.84-2.86,3.59-4.3,5.26-.67.7-1.44,1.67-1.87,2.34-1.13,1.13-1.9,2.1-2.24,3.52l-.85,1.35c-1.98,2.48-2.4,5.42-3.08,8.26-.1.26-.07.51-.07.51.1.87.14,1.24.83,1.79.54.32,1.32.6,2.15.13,1.09-.37,1.82-.58,2.61-1.3,1.62-1.19,2.94-2.84,4.29-4.25.4-.92,1.3-1.78,1.84-2.59.67-1.83,1.52-3.18,2.91-4.22.18,1.61-1.13,2.26-1.96,3.74-.11.14-.6.19-.7.46-.2.4-.14,1.02-.6,1.32-.96,1.49-1.69,2.83-2.79,4.21-.48.18-.55.69-.36,1.3,1.24-.14,1.5-1.17,2.06-1.74.84-1.47,1.69-2.83,3.06-3.99.73-1.34,1.58-2.69,2.43-4.04,1.47-2.55,3.2-5.01,4.23-8.14l.08-1.52-1.05.75c-.13-1.12-.06-1.63.92-1.86-.21-.73-.13-1.12.34-1.42.3-.66.41-.8.78-.84.08-.39-.11-.99.35-1.29.06.49.11.99-.23,1.28-.07.51-.04.76-.53.81.07.62-.26,1.03-.71,1.46l.13,1.12c.19-.52.81-.59.92-.73,1.18-1.77,2.09-3.75,2.85-5.85.65-.95,1.01-2.12,1.54-3.06ZM516.13,416.61l-.99.11c.3-.66.71-1.46.8-1.85.19-.52-.1-.87-.15-1.36-.15-.23-1.03-.26-1.49.17l-.8.72c-.33.41-.54.81-1,1.12-1.68.69-2.87,2.33-4.42,3.14-1.76,1.08-3.19,2.87-4.82,3.94-1.76,1.08-3.12,2.36-4.04,4.22q-.25.03-.21.4c-3.22,2.62-5.84,6.06-8.33,9.6-.66.83-1.02,2.12-1.26,3.28,1.51.08,2.55-.79,3.5-1.27,1.54-.8,2.76-2.2,4.29-3.12l1.39-1.04,7.27-6.72c3.27-3.26,6.4-6.62,9.43-9.85.34-.29.92-.73.84-1.48ZM490.91,462.14c-.13.01-.07.51-.03.88,1.61-1.31,2.82-2.83,3.72-4.81-.14-.11-.39-.08-.5.06-1,1.12-2.38,2.28-3.2,3.88ZM493.36,481.57c-1.12.13-1.78.95-2.16,2,1.52.08,1.88-1.09,2.16-2ZM495.26,457.38c1.61-.18,2.23-1.38,2.83-2.71-1.49.17-2.24,1.26-2.87,2.33l.04.37ZM503.03,465.03c.1.87-.2,1.53-.77,2.09-.47,1.43-1.21,2.65-2.38,3.41.31-1.67.96-2.62,2.24-3.52-.11-.99.08-1.52.91-1.99ZM504.29,462.88c.06.5.11.99-.59,1.45-.06-.5-.13-1.12.59-1.45ZM508.43,445.09c-.65-.18-1.35.28-1.78.95-.73.21-1.17.76-1.54.8l-.07-.62c1.86-1.34,3.44-2.9,5.71-3.91h.12c-.04.74-.63,1.06-.97,1.35-.61.19-1.31.65-1.47,1.42ZM507.99,455.56c.08.74-.31,1.67-1.29,1.9-.11-.99.31-1.67,1.29-1.9ZM508.88,453.45c.07.62-.2,1.53-.89,2.11-.11-.99.07-1.64.89-2.11ZM511.65,449.12c-.59.32-.8.72-1.02.99l.11.99c.96-.36,1.02-.99.9-1.98ZM511.16,445.91l.15.23c.32-.54.68-.7.85-1.35-.12.01-.14-.11-.12.01-.45.43-.8.72-1.4.91,0,0,.03.25.52.19ZM510.85,442.06c.18-.65.69-.58,1.18-.64-.17.77-.41.8-1.18.64ZM512.27,447.92c-.85.22-.69.58-.62,1.2.73-.21.67-.7.62-1.2ZM512.8,445.98l-.22.28c-.33.41-.41.8-.31,1.67.5-.06.64-.95.85-1.35-.03-.25-.04-.37-.32-.59ZM527.88,430.59c-.54-.32.04-.76.41-.8.48-.18.94-.61,1.56-.68-.51,1.06-1.35,1.41-1.97,1.48ZM530.76,431.65c-.62.07-.98.24-1.17.76.62-.07,1.27.11,1.42-.79l-.25.03ZM537.63,429.11c.06.5-.43.68-.74,1.21-.7.46-1.04.75-1.69.57-.5.06-.66-.3-1.17-.37l-.06-.5c.6-.19,1.24-.14,1.72-.32.58-.44,1.32-.53,1.94-.6ZM537.98,425.56c-.47.3-1.24.14-1.28.9.62-.07,1.02.14,1.28-.9ZM539.66,424.86c-.62.07-1.5.04-1.68.69l1.12-.13c.37-.04.6-.19.56-.56ZM541.47,424.28s-.39-.08-.51-.07c-.52-.19-.99.11-1.2.51l1.36-.15c.37-.04.34-.29.34-.29ZM546.6,424.08c-1.61.18-2.93.71-3.98,1.45-.25.03-.22.28-.22.28,1.52.08,2.82-.57,4.2-1.73ZM544.06,422.73l1.86-.21q.13-.01.23-.15c-.25.03-.4-.21-.52-.19-.5.06-1.24.14-1.57.56Z"/>
    <path class="cls-1" d="M590.09,423.55l-.08-.74c-.37.04-1.11.13-1.4.91-.37.04-.62.07-.96.36-.95.48-1.56.68-1.82,1.71-.47.3-1.09.37-1.29.77-.87.1-1.32.53-1.7,1.57l1.24-.14.06.5c-1.49,1.3-3.48,2.53-4.44,4.02-1.91.84-3.23,2.5-4.72,3.8-1.76,1.08-3.24,2.38-4.74,3.55-2.79,1.95-5.54,4.27-8.86,6.02-1.56.68-2.97,1.47-4.51,2.27-2.97,1.47-6.44,1.86-9.76,1.36-.25.03-.9-.15-1.03-.26-1.04-1.39-2.26-2.25-3.09-4.04-1.09-1.89-1.84-4.06-1.84-6.32.15-2.03.43-3.94.72-5.86,1.33-4.92,3.34-9.29,6.13-13.5.85-1.35,2.2-2.76,3.05-4.11.99-1.24,2.45-1.66,3.88-1.19,1.2.62,2.29,1.37,3.38,2.13.44.58.18,1.61-.31,1.67l-.37.04c-1.78-.18-3.01,1.09-3.48,2.53-1,2.25-2.07,3.87-2.87,5.72-1.67,2.95-3.31,6.27-3.96,9.36-.12,1.14-.51,2.19-1.12,3.39-.33,1.54-.3,2.92.27,4.61,1.21.74,3.07.53,4.64-.02,1.43-.66,2.99-1.34,4.53-2.14,1.44-.54,2.86-1.33,4.39-2.25,1.14-1.01,2.83-1.58,4.19-2.86,2.94-1.71,5.23-3.73,8.24-5.95,2.22-1.51,4.14-3.35,6.6-4.89.61-.19,1.54-.8,1.98-1.35,1.2-1.64,3.2-2.75,4.59-3.78,1.4-.91,2.43-1.78,3.7-2.8.58-.44,3.38-2.27,4.14-2.23.65.18-.47,1.43.17,2.62-1.43,2.92-2.92,5.23-3.52,5.54ZM557.38,397.38c1.14-1.01,2.32-1.64,3.95-1.7.25-.03.54.32.79.29.72.8,1.78,1.3,2.03,2.41.07.62.53,1.32.11,2.12-.81.59-1.47,1.42-2.82,1.7l-1.12.13c-.39-.08-1.13,0-1.9-.16-2.05-.39-2.87-3.19-1.04-4.78ZM589.69,421.09c-1.8.71-3.45,1.65-5.08,2.83-2.42,1.91-4.87,3.56-7.29,5.47-.47.31-1.16.88-1.13,1.13,1.24-.14,2.17-.75,3.22-1.49,3.13-2.24,6.23-4.85,9.5-6.98.25-.03.55-.69.77-.97Z"/>
    <path class="cls-1" d="M677.74,410.62c-2.37,1.27-4.64,2.28-7.14,3.44-.8.72-1.65.94-2.4,1.02-.87.1-1.21.39-.86,1.23,0,0-.36.17-.7.46l-12.77,6.97c-3.44,1.77-7.24,3.71-10.33,5.19-1.86,1.34-3.54,2.03-5.22,2.72-1.9.97-3.88,1.19-6.03,1.06-.54-.32-1.59-.7-2.25-1-.69-.55-1.79-1.43-2.37-2.12-.58-.69-.91-1.4-1.01-2.27-.59-4.08-.93-8.18,0-12.18.48-1.31.7-2.71.82-3.86.18-.65.18-1.78.06-2.77-.1-.87-.24-.98-.79-.29-2.86,1.33-5.59,2.77-8.08,4.05-1.53.93-2.42,1.91-3.82,2.82-1.83,1.59-3.8,3.07-5.61,4.78-.66.83-2.27,1.01-2.89,2.21-3.81,2.94-6.78,6.67-9.76,10.27-.56.57-1.1,1.38-1.54,1.93-.92,1.86-2.36,3.53-4.23,4.75-.44.55-.63,1.08-1.07,1.63-.36.17-1.35.28-1.9-.16-1.19-1.62-2.51-3.36-1.64-5.59.26-1.03.59-2.58,1.09-3.64.45-1.56,1.07-2.76,1.52-4.31.08-.39.25-1.16.81-1.72,2.26-4.4,3.84-9.35,4.65-14.33.47-1.43,1.29-1.9,2.45-1.66,1.45.59,2.65,1.21,3.66,2.35.55.44.21.73.11.99-.85,1.35-1.58,2.69-1.52,4.31-.31.54-.63,1.08-.68,1.71-1.19,2.77-2.51,5.56-3.34,8.16-.19.52-.62,1.2-.55,1.82.25-.03.5-.06.73-.21,2.28-2.02,4.35-3.76,6.49-5.88,2.36-2.4,4.23-4.75,7.16-6.59,1.33-1.53,3.25-2.38,4.74-3.55,1.45-1.67,3.22-2.62,5.06-4.09,1.45-.54,2.34-1.52,3.38-2.27.91-.86,2.34-1.52,3.4-2.14,1.15-.88,2.28-.89,3.4-1.01.12-.01.66.3.94.52.72.8,1.82,1.68,2.55,2.6.17.36.23.98.18,1.61-.28,3.04-.69,6.1-1.08,9.29-.12,2.27-.46,4.82-.72,6.98-.43.68-.45,1.56-.35,2.43-.09,1.39.82,1.66,2.28,1.25,3.46-.52,6.43-1.98,9.32-3.06,2.08-1.61,4.75-2.42,6.98-3.8,2.01-1.11,3.76-2.31,5.9-3.3,2.87-1.2,5.68-3.03,8.32-4.08,2.58-1.55,4.85-2.56,7.58-4,2.09-1.49,4.51-2.27,6.73-3.77.69-.58,2.08-.49,3.18-.74.25-.03.39.08.41.33.07,1.75,1.59,2.96-3.27,5.52ZM641.76,426.49l-1.36.15-.09.26c.12-.01.16.36.54.32.37-.04.74-.08.92-.73ZM643.44,425.8c-.25.03-1.41-.22-1.57.55l.87-.1c.5-.06.74-.08.7-.46ZM653.89,420.6c-.25.03-.64-.05-1.01-.01-.37.04-.48.18-.78.84.77.16,1.52.08,1.79-.83ZM656.99,419.12c-1.14-.12-2.09.36-2.89,1.08l.03.25c.99-.11,2.23-.25,2.86-1.33ZM658.75,418.04l-.87.1c-.5.06-.93.61-.89.98.87-.1,1.62-.06,1.76-1.08ZM678.76,408.5c-.26-.1-.43-.45-.39-.08-1.47.29-2.55.79-3.96,1.58-.11.14-.55.69-.95.48-1.65-.19-2.78.94-4.33,1.62-.5.06.13,1.12-1.12,1.26-.37.04-.85.22-1.2.51-.59.32-1.31.65-1.68.69-1.9.97-3.82,1.69-5.48,2.63-.36.17-.82.47-.78.84.92.4,1.61-.18,2.46-.4,3.12-1.23,5.78-3.29,8.82-4.14.1-.26.34-.29.7-.46.51-1.06,1.79-.83,2.35-1.4,2.31-.64,3.67-1.92,5.31-2.99.25-.03.23-.15.23-.15Z"/>
    <path class="cls-1" d="M728.18,406.04c.03.25-.58.44-.7.46-2.08.49-3.7,1.67-5.71,2.78-2.94,1.71-5.92,3.18-8.75,4.76-.34.29-.84.35-.94.61-2.27,2.14-5.31,2.99-7.75,4.77-2.6,1.42-5.19,2.97-7.65,4.51-3.48,2.53-7.4,4.48-11.67,5.59-.72.33-1.21.39-1.64,1.06-2.36,1.27-4.57.64-6.76.14-1.41-.22-2.47-.72-3.43-1.49-1.61-.95-2.41-2.49-3.08-3.92-.81-2.67-.86-3.17-.62-5.45l.69-1.71c1.48-4.69,4.05-8.62,7.43-12.01,3.11-3.62,6.38-6.87,10.34-9.58,1.02-.99,2.67-1.93,4.25-2.36,1.06-.62,2.53-.91,3.59-1.54,1.49-1.3,2.82-1.7,4.42-.88.29.34.62-.07,1.16.25.51.07,1.27.11,1.42.34,1.09.76,1.85,1.92,2.29,2.5,1.19,1.62,1.38,3.36.3,4.86-1.39,2.17-2.13,4.51-4.49,5.78l-1.61,1.31c-3.04,3.11-6.99,4.81-11.01,5.89-1.06.62-2.44.65-3.55.78-1.61.18-3.64.04-5.62.26-.37.04-.62.07-1.06.62-1.66,3.08-3.84,5.96-4.6,9.31-.23,1.28.35,1.97,1.26,2.24,1.41.22,3.1.78,4.26-.1,2.73-.31,5.35-1.49,7.76-2.39,2.07-.61,4.14-2.23,6.05-3.07,2.23-1.38,3.98-2.58,5.96-3.94q.7.67,1.24-.14c.77-.97,1.81-1.71,3-2.35.19-.52.81-.59,1.53-.93,3.89-2.2,7.87-4.78,11.53-6.83,1.15-.88,2.26-1.13,3.44-1.77.95-.48,2.12-1.24,2.92-1.96,1.55-.68,2.56-.67,3.71.59.41.33.81.54,1.2.62.92.4,1.57,1.7.9,2.41ZM679.75,411.77c.41.33,1.12-.13,1.49-.17.47-.3.97-.36,1.59-.43l.03.25c1.09-.37,2.56-.67,3.52-1.03,1.43-.66,2.5-1.16,4.03-2.09,3.23-1.37,5.79-3.17,8.17-5.44,1.28-.9,2.23-2.51,2.68-4.07.33-.41.25-1.16.18-1.78.3-.66-.22-.85-.77-1.29-.41-.33-.85.22-.93.61-.07.51-.68.7-1.42.79-2.7.56-5.34,1.61-7.53,3.36-2.93,1.84-5.17,4.23-7.44,6.36l-2.98,3.6c-.11.14-.77.97-.6,1.32Z"/>
    <path class="cls-1" d="M799.18,391.23c-.22.28-.8.72-.92.73-1.47.29-2.5,1.16-3.66,2.05-3.78,3.19-7.63,6.89-11.51,10.34-1,1.12-1.79,1.96-2.94,2.84-1.03.87-1.66,1.95-2.58,2.68-3.03,3.23-5.7,6.17-8.75,9.15-1.02.99-2.3,1.89-3.23,2.5-2.33,1.64-4.37,3.51-6.7,5.15-.8.72-1.64,1.06-2.86,1.33-1.21.39-2.79.82-3.96,1.58-.87.1-1.49.17-2.41-.23-4.87-1.96-6.38-6.43-5.99-10.74-.06-.5-.03-1.38.27-2.04,1.22-3.65,2.67-7.46,4.01-11.12,1.11-2.38,2.08-4.88,3.32-7.28.33-.41.73-1.34.66-1.96-.83.47-1.49,1.3-2.14,2.13-1.36,2.41-3.17,4.13-4.57,6.17-1.41,1.92-2.71,3.82-3.85,5.96-2.36,3.53-5.11,6.98-7.79,9.92-.45.43-.89.98-1.25,1.15-.82,1.6-1.81,2.84-3.2,3.88-.73.21-.92.73-1.28.9-1.44,1.67-3,2.35-4.77,3.3-.84.35-1.72.32-2.6.29-3.2-.52-5.67-3.5-6.12-6.34-.61-2.07-.1-4.26.54-6.34,1.35-4.67,3.12-9.01,5.52-13.3,1.04-1.88,2.55-4.06,4.01-5.6,2.2-2.76,4.37-5.77,6.86-8.18,1.72-1.45,3.82-2.82,5.93-3.06,2.4.1,4.39,0,6.61.76,1.08.63,2.25,1,3.21,1.77q1.05.38,1.98-.22c.23-.15.44-.55.55-.69.1.87.17,1.49-.15,2.02-.19.52.1.87.37,1.09.14.11.29.34.88.03l.7-.46c1.92-2.98,4.66-5.42,6.28-8.87.89-.98,1.66-1.95,2.57-2.8,1.57-1.68,2.57-3.93,3.71-6.07,2.16-3.13,4.16-6.5,5.96-9.46,1.07-1.63,1.95-2.73,1.62-4.58-.03-.25.04-.76.26-1.03,1.75-2.33,3.63-4.55,5.14-6.73,1.77-2.08,3.52-4.42,4.74-6.94.96-1.49,2.32-2.77,3.33-3.89,1.35-1.41,3.47-.39,3.76,1.08.07.62.14,1.24.06,1.63-.19.52-.09,1.39.21,1.86.59.81.32,1.72-.46,2.56-1,1.12-1.98,2.48-2.86,3.59-2.87,3.46-5.88,6.82-7.71,10.66-.73,1.34-2.08,2.75-3.06,3.99-1.22,2.52-2.68,5.2-4.05,7.49-1.39,2.16-2.25,4.52-3.77,6.58-2.24,3.52-4.19,7.38-6.38,11.27-.76,1.09-1.07,2.76-2.53,3.17-.12.01-.07.51-.07.51.25,1.1-.07,1.64-.75,2.22-.43.68-.41,1.93-.71,2.59-1.36,2.41-2.08,4.88-3.46,7.17-.76,1.09-1.19,2.77-1.66,4.2-.27.91-.7,1.59-1.21,2.65-1.23,2.4-1.93,5.11-2.5,7.82-.31,2.8.27,3.48,2.87,2.06,2.92-.83,5.83-2.79,8.23-4.95,3.22-2.62,6.53-5.51,9.21-8.45,4.7-5.05,9.62-9.25,14.35-14.05,3.16-3.12,6.65-5.52,10-8.16.8-.72,1.94-.6,2.84-.45.51,1.2,2.07.52,2.77,1.19.39.08.69.55.95.65.26.1.39,1.21.15,1.36ZM739.66,401.1c1-1.12,1.8-1.84,2.57-2.8,1.06-1.75,2.02-3.24,3.21-4.88.06-.63-.11-.99-.61-.93l-2.85.32c-4.1.34-6.21,1.71-8.37,3.71-1.84,1.46-3.39,3.27-4.71,4.93-.7.46-.97,1.37-1.28,2.03-.25,1.16-1.26,2.15-1.79,3.09-2.17,3.01-3.62,5.68-5.24,9.13-.89,2.11-1.23,4.66-1.72,6.97-.21.4.1.87.24.98.37-.04.62-.07.85-.22l4.7-3.92c1.91-1.97,3.9-4.33,6.03-6.58,3.08-3.86,6.39-7.88,8.96-11.81ZM747.32,394.46c-.15-.23-.66-.3-.99.11-.67.7-1.21,1.52-1.5,2.3l-7.16,9.97c-.1.26-.42.68-.86,1.23-.3.66-.98,1.37-1.39,2.17.58-.44,1.18-.64,1.51-1.05,2.85-2.58,5-5.71,7.31-8.61.99-1.24,1.84-2.59,2.71-3.82l.76-1.09c.11-.14-.08-.74-.39-1.21ZM750.22,387.86l2.91-4.22c.12-.01.51.07,1.13,0-.36-.96-.18-1.61.4-2.05.96-1.49,2.2-2.76,3.41-4.28.44-.55.71-1.46,1.39-2.16.92-.73,1.72-1.45,2.07-2.75-.01-.12.73-.21.83-.47.19-.52.27-.91.63-1.08-.04-.37.08-.39.08-.39.04.37.31.47.31.47-.12,1.14-.12,2.27-1.29,3.03-1.13,1.13-2.2,2.76-3.32,3.89-1.28,2.03-2.46,3.79-4.01,5.6.01.12-.23.15-.48.18l.03.25c-.98,1.37-1.44,2.8-2.82,3.96-.33.41-.87.1-1.26.02ZM776.7,405.57c-.87.1-1.43.66-1.98,1.35,1.01.01,1.58-.43,1.98-1.35ZM778.77,402.82c-.62.07-.94.61-.87,1.23q.99-.11.87-1.23ZM788.99,394.39c.93-.61,1.84-1.46,2.62-2.31-.99.11-1.95.47-2.97,1.47-1.51,1.05-2.87,2.33-4.11,3.6-1.45.54-2.09,1.49-2.86,2.46-.88,1.1-2.19,1.75-2.94,2.84,1.28.23,1.72-.32,2.78-.94,2.36-2.4,4.96-4.96,7.48-7.12Z"/>
  </g>
</svg>